<svg xmlns="http://www.w3.org/2000/svg" viewBox="0 0 100 100" role="img" aria-label="화창하다 CS봇">
  <defs>
    <radialGradient id="lbg" cx="50%" cy="40%" r="65%">
      <stop offset="0%" stop-color="#E81233"/>
      <stop offset="100%" stop-color="#B30015"/>
    </radialGradient>
    <radialGradient id="lface" cx="50%" cy="40%" r="60%">
      <stop offset="0%" stop-color="#ffffff"/>
      <stop offset="100%" stop-color="#F2F4F8"/>
    </radialGradient>
    <radialGradient id="lsignal" cx="50%" cy="50%" r="50%">
      <stop offset="0%" stop-color="#FFEB85"/>
      <stop offset="60%" stop-color="#FFC83D"/>
      <stop offset="100%" stop-color="#FFA500"/>
    </radialGradient>
  </defs>

  <rect width="100" height="100" rx="18" fill="url(#lbg)"/>

  <g fill="#ffffff" opacity="0.15">
    <polygon points="50,12 47,30 53,30"/>
    <polygon points="50,12 38,31 41,31"/>
    <polygon points="50,12 28,32 32,32"/>
    <polygon points="50,12 59,30 62,30"/>
    <polygon points="50,12 68,31 71,31"/>
    <polygon points="50,12 78,32 82,32"/>
  </g>

  <line x1="50" y1="22" x2="50" y2="34" stroke="#ffffff" stroke-width="2.5" stroke-linecap="round"/>
  <circle cx="50" cy="19" r="4" fill="url(#lsignal)"/>

  <rect x="26" y="36" width="48" height="42" rx="12" fill="url(#lface)"/>

  <rect x="22" y="51" width="5" height="13" rx="2" fill="#ffffff"/>
  <rect x="73" y="51" width="5" height="13" rx="2" fill="#ffffff"/>

  <circle cx="40" cy="54" r="3.3" fill="#2C2C2C"/>
  <circle cx="60" cy="54" r="3.3" fill="#2C2C2C"/>
  <circle cx="41.3" cy="52.8" r="1.3" fill="#ffffff"/>
  <circle cx="61.3" cy="52.8" r="1.3" fill="#ffffff"/>

  <path d="M 43 66 Q 50 70 57 66" stroke="#7A1620" stroke-width="2.2" fill="none" stroke-linecap="round"/>

  <ellipse cx="32.5" cy="65" rx="2.8" ry="2" fill="#FFB3BA" opacity="0.5"/>
  <ellipse cx="67.5" cy="65" rx="2.8" ry="2" fill="#FFB3BA" opacity="0.5"/>
</svg>
